<svg width="33" height="33" viewBox="0 0 33 33" fill="none" xmlns="http://www.w3.org/2000/svg">
<g clip-path="url(#clip0_2201_226)">
<path d="M20.4387 32.0715C20.4387 32.0715 21.1685 28.5558 24.2199 24.3359C26.3408 23.114 28.4676 21.6167 30.2692 19.8204C31.9348 11.5837 29.4064 2.74641 29.4064 2.74641C29.4064 2.74641 20.5446 0.225334 12.2854 1.88632C10.4834 3.68367 8.98272 5.80467 7.75738 7.91893C3.52465 10.9611 0 11.6889 0 11.6889C0 11.6889 2.81919 13.6193 4.17939 15.8096C3.60015 17.4758 3.32781 18.5494 3.32781 18.5494C3.54831 19.5777 4.2008 20.7772 5.10122 21.9875C4.47953 22.479 3.75078 22.9903 2.95893 23.4178C2.86427 23.4698 2.76735 23.5197 2.67081 23.5684C3.35035 25.8036 6.35173 28.6187 8.53796 29.3773C8.58229 29.29 8.62849 29.2039 8.67545 29.1181C9.11645 28.3071 9.64573 27.562 10.1506 26.9308C11.3756 27.8171 12.5727 28.4775 13.5592 28.7517C13.5592 28.7517 14.6369 28.4805 16.3074 27.9029C18.503 29.2597 20.4387 32.0715 20.4387 32.0715V32.0715ZM14.209 24.6266C12.9518 24.0834 11.282 22.7461 10.1438 21.6103C8.60483 20.0756 7.7709 18.7682 7.45086 17.9545C7.9914 16.1171 10.068 9.76985 14.0561 5.50274C18.8659 4.68836 23.9043 5.5638 26.0973 6.04592C26.5804 8.2321 27.4594 13.2578 26.642 18.0538C22.3894 22.01 16.1165 24.0673 14.209 24.6266Z" fill="#60159A"/>
<path d="M29.4064 2.74641L29.8871 2.60888L29.8106 2.34157L29.5432 2.2655L29.4064 2.74641ZM29.4064 2.74641C29.5432 2.2655 29.5431 2.26546 29.5429 2.26541L29.5424 2.26527L29.5408 2.26481L29.5351 2.26323L29.5143 2.25741C29.4962 2.25239 29.4697 2.24511 29.4351 2.23577C29.3659 2.2171 29.2643 2.19021 29.1326 2.15674C28.8693 2.0898 28.4855 1.99652 27.9997 1.89004C27.0285 1.67715 25.6483 1.41118 24.0076 1.19768C20.7321 0.771436 16.3913 0.550581 12.1868 1.39614L12.039 1.42586L11.9323 1.53232C10.1177 3.34225 8.60948 5.4655 7.37908 7.57482C5.3344 9.03232 3.46562 9.93835 2.10625 10.4803C1.41711 10.755 0.859387 10.936 0.476748 11.0477C0.28545 11.1036 0.137989 11.1421 0.0398338 11.1663C-0.00924131 11.1784 -0.0459822 11.187 -0.0697049 11.1923L-0.0954358 11.1981L-0.100815 11.1992L-0.101118 11.1993L-0.10136 11.1993L-0.101522 11.1994L-0.101606 11.1994L-1.25281 11.4371L-0.282599 12.1014L-0.282573 12.1014L-0.282482 12.1015L-0.282461 12.1015L-0.281423 12.1022L-0.276351 12.1057L-0.254562 12.1209C-0.23499 12.1346 -0.205512 12.1553 -0.167164 12.1828C-0.0904538 12.2377 0.0216439 12.3192 0.160833 12.4241C0.439445 12.634 0.82535 12.9367 1.2526 13.3061C2.05934 14.0036 2.98705 14.9166 3.62754 15.8761C3.37517 16.6139 3.18601 17.2245 3.05678 17.663C2.98554 17.9047 2.93248 18.0942 2.89706 18.224C2.87935 18.2888 2.86605 18.3388 2.85709 18.3728L2.8469 18.4119L2.84423 18.4223L2.84349 18.4252L2.84328 18.426L2.84321 18.4263L2.84318 18.4264L3.32781 18.5494L2.84316 18.4265L2.8144 18.5399L2.83892 18.6543C3.05538 19.6637 3.63721 20.7818 4.41174 21.8869C3.89797 22.2706 3.32726 22.6508 2.72143 22.9778L2.72143 22.9778L2.71795 22.9797C2.63106 23.0275 2.54034 23.0742 2.44562 23.1219L2.07009 23.3114L2.19243 23.7138C2.56757 24.9478 3.55545 26.281 4.6908 27.3851C5.8293 28.4922 7.18722 29.4379 8.37406 29.8497L8.78623 29.9927L8.98377 29.6037C9.02484 29.5228 9.06834 29.4417 9.11404 29.3582L9.11471 29.357C9.45534 28.7305 9.85297 28.1415 10.2521 27.6143C11.3652 28.3799 12.4687 28.9676 13.4253 29.2335L13.5528 29.2689L13.6812 29.2366L13.5592 28.7517L13.6813 29.2366L13.6814 29.2366L13.6816 29.2365L13.6825 29.2363L13.6854 29.2356L13.6958 29.2329L13.735 29.2227C13.7692 29.2138 13.8193 29.2006 13.8844 29.1829C14.0146 29.1476 14.2048 29.0948 14.4473 29.0238C14.8875 28.8949 15.5006 28.7062 16.2411 28.4542C17.2036 29.0932 18.1194 30.0191 18.819 30.824C19.1894 31.2501 19.4929 31.635 19.7034 31.9129C19.8086 32.0517 19.8903 32.1635 19.9453 32.24C19.9728 32.2782 19.9937 32.3076 20.0074 32.3272L20.0226 32.3489L20.0261 32.3539L20.0268 32.355L20.0269 32.3551C20.0269 32.355 20.0268 32.355 20.4387 32.0715C20.9282 32.1731 20.9282 32.1732 20.9282 32.1733L20.9283 32.1728L20.9294 32.1675L20.9352 32.1418C20.9405 32.1182 20.9491 32.0816 20.9613 32.0327C20.9856 31.9348 21.0242 31.7878 21.0801 31.597C21.1921 31.2155 21.3736 30.6594 21.6491 29.9722C22.1926 28.6168 23.1012 26.7535 24.563 24.7151C26.6789 23.4881 28.808 21.9834 30.6222 20.1745L30.7293 20.0678L30.7593 19.9195C31.6073 15.7259 31.3857 11.3965 30.9582 8.12975C30.744 6.49345 30.4772 5.11693 30.2637 4.14829C30.1569 3.66384 30.0633 3.28105 29.9962 3.01839C29.9626 2.88706 29.9356 2.78572 29.9169 2.71671C29.9075 2.6822 29.9002 2.65577 29.8952 2.6377L29.8894 2.61691L29.8878 2.61128L29.8873 2.60968L29.8872 2.60918C29.8871 2.60901 29.8871 2.60888 29.4064 2.74641ZM10.497 21.2564L10.4969 21.2563C9.08914 19.8524 8.31179 18.6697 7.98102 17.926C8.58275 15.927 10.5909 10.0198 14.3066 5.96815C18.7552 5.25239 23.3935 5.98757 25.6767 6.46696C26.1572 8.74347 26.8949 13.3682 26.1769 17.8025C22.1412 21.4866 16.305 23.4761 14.2456 24.0942C13.091 23.5457 11.569 22.3261 10.497 21.2564Z" stroke="#040009" stroke-opacity="0.3"/>
<path d="M18.4263 16.9814C20.2456 16.9814 21.7203 15.5107 21.7203 13.6965C21.7203 11.8823 20.2456 10.4116 18.4263 10.4116C16.6071 10.4116 15.1323 11.8823 15.1323 13.6965C15.1323 15.5107 16.6071 16.9814 18.4263 16.9814Z" fill="white"/>
</g>
<defs>
<clipPath id="clip0_2201_226">
<rect width="33" height="33" fill="white"/>
</clipPath>
</defs>
</svg>
